<svg width="440" height="180" viewBox="0 0 440 180" fill="none" xmlns="http://www.w3.org/2000/svg">
<g clip-path="url(#clip0)">
<path d="M419 90H417.74C417.366 88.551 416.593 87.236 415.509 86.2044C414.425 85.1728 413.073 84.466 411.607 84.1643C410.141 83.8626 408.62 83.978 407.217 84.4976C405.813 85.0171 404.584 85.9199 403.668 87.1034C402.752 88.2868 402.186 89.7035 402.035 91.1924C401.884 92.6812 402.154 94.1826 402.813 95.526C403.473 96.8693 404.496 98.0007 405.766 98.7916C407.037 99.5824 408.504 100.001 410 100H419C420.326 100 421.598 99.4732 422.536 98.5355C423.473 97.5979 424 96.3261 424 95C424 93.6739 423.473 92.4021 422.536 91.4645C421.598 90.5268 420.326 90 419 90Z" stroke="#BEDCF8" stroke-width="2" stroke-linecap="round" stroke-linejoin="round"/>
</g>
<path d="M149.243 138V130C149.242 129.649 149.15 129.305 148.974 129.001C148.799 128.697 148.546 128.445 148.243 128.27L141.243 124.27C140.939 124.094 140.594 124.002 140.243 124.002C139.892 124.002 139.547 124.094 139.243 124.27L132.243 128.27C131.939 128.445 131.687 128.697 131.511 129.001C131.336 129.305 131.243 129.649 131.243 130V138C131.243 138.351 131.336 138.695 131.511 138.999C131.687 139.302 131.939 139.555 132.243 139.73L139.243 143.73C139.547 143.905 139.892 143.998 140.243 143.998C140.594 143.998 140.939 143.905 141.243 143.73L148.243 139.73C148.546 139.555 148.799 139.302 148.974 138.999C149.15 138.695 149.242 138.351 149.243 138Z" stroke="#F69D9D" stroke-width="2" stroke-linecap="round" stroke-linejoin="round"/>
<path d="M238.5 23V19C238.5 18.8246 238.454 18.6524 238.366 18.5005C238.278 18.3487 238.152 18.2226 238 18.135L234.5 16.135C234.348 16.0472 234.176 16.001 234 16.001C233.824 16.001 233.652 16.0472 233.5 16.135L230 18.135C229.848 18.2226 229.722 18.3487 229.634 18.5005C229.546 18.6524 229.5 18.8246 229.5 19V23C229.5 23.1753 229.546 23.3475 229.634 23.4994C229.722 23.6512 229.848 23.7773 230 23.865L233.5 25.865C233.652 25.9527 233.824 25.9989 234 25.9989C234.176 25.9989 234.348 25.9527 234.5 25.865L238 23.865C238.152 23.7773 238.278 23.6512 238.366 23.4994C238.454 23.3475 238.5 23.1753 238.5 23Z" stroke="#BEDCF8" stroke-width="2" stroke-linecap="round" stroke-linejoin="round"/>
<path d="M359.5 96V92C359.5 91.8246 359.454 91.6524 359.366 91.5005C359.278 91.3487 359.152 91.2226 359 91.135L355.5 89.135C355.348 89.0472 355.176 89.001 355 89.001C354.824 89.001 354.652 89.0472 354.5 89.135L351 91.135C350.848 91.2226 350.722 91.3487 350.634 91.5005C350.546 91.6524 350.5 91.8246 350.5 92V96C350.5 96.1753 350.546 96.3475 350.634 96.4994C350.722 96.6512 350.848 96.7773 351 96.865L354.5 98.865C354.652 98.9527 354.824 98.9989 355 98.9989C355.176 98.9989 355.348 98.9527 355.5 98.865L359 96.865C359.152 96.7773 359.278 96.6512 359.366 96.4994C359.454 96.3475 359.5 96.1753 359.5 96Z" stroke="#FDFFBA" stroke-width="2" stroke-linecap="round" stroke-linejoin="round"/>
<path d="M83 138L77 144" stroke="#BEDCF8" stroke-width="2" stroke-linecap="round" stroke-linejoin="round"/>
<path d="M77 138L83 144" stroke="#BEDCF8" stroke-width="2" stroke-linecap="round" stroke-linejoin="round"/>
<g clip-path="url(#clip1)">
<path d="M250.243 125.121V129.364" stroke="#BEDCF8" stroke-width="2" stroke-linecap="round" stroke-linejoin="round"/>
<path d="M248.121 127.243H252.364" stroke="#BEDCF8" stroke-width="2" stroke-linecap="round" stroke-linejoin="round"/>
</g>
<g clip-path="url(#clip2)">
<path d="M273.243 63H264.757" stroke="#BEDCF8" stroke-width="2" stroke-linecap="round" stroke-linejoin="round"/>
<path d="M269 58.7573V67.2426" stroke="#BEDCF8" stroke-width="2" stroke-linecap="round" stroke-linejoin="round"/>
</g>
<path d="M386 64L380 70" stroke="#BEDCF8" stroke-width="2" stroke-linecap="round" stroke-linejoin="round"/>
<path d="M380 64L386 70" stroke="#BEDCF8" stroke-width="2" stroke-linecap="round" stroke-linejoin="round"/>
<g clip-path="url(#clip3)">
<path d="M386.243 136H377.757" stroke="#BEDCF8" stroke-width="2" stroke-linecap="round" stroke-linejoin="round"/>
<path d="M382 131.757V140.243" stroke="#BEDCF8" stroke-width="2" stroke-linecap="round" stroke-linejoin="round"/>
</g>
<path d="M43.14 118.29L29 109.82C28.6976 109.645 28.3547 109.553 28.0055 109.552C27.6563 109.551 27.3129 109.642 27.0095 109.814C26.7061 109.987 26.4533 110.237 26.2762 110.538C26.0991 110.839 26.0039 111.181 26 111.53L26 128.47C26.0039 128.819 26.0991 129.161 26.2762 129.462C26.4533 129.763 26.7061 130.013 27.0095 130.186C27.3129 130.359 27.6563 130.449 28.0055 130.448C28.3547 130.447 28.6976 130.355 29 130.18L43.14 121.71C43.4339 121.532 43.6769 121.281 43.8456 120.981C44.0142 120.682 44.1028 120.344 44.1028 120C44.1028 119.656 44.0142 119.318 43.8456 119.019C43.6769 118.719 43.4339 118.468 43.14 118.29V118.29Z" stroke="#BEDCF8" stroke-width="2" stroke-linecap="round" stroke-linejoin="round"/>
<path d="M308 29L298 41H307L306 49L316 37H307L308 29Z" stroke="#7FE7CC" stroke-width="2" stroke-linecap="round" stroke-linejoin="round"/>
<path d="M278 141.5C278.003 142.82 277.695 144.122 277.1 145.3C276.394 146.712 275.31 147.899 273.967 148.729C272.625 149.559 271.078 149.999 269.5 150C268.18 150.003 266.878 149.695 265.7 149.1L260 151L261.9 145.3C261.305 144.122 260.997 142.82 261 141.5C261.001 139.922 261.441 138.375 262.271 137.033C263.101 135.69 264.288 134.606 265.7 133.9C266.878 133.305 268.18 132.997 269.5 133H270C272.084 133.115 274.053 133.995 275.529 135.471C277.005 136.947 277.885 138.916 278 141V141.5Z" stroke="#BEDCF8" stroke-width="2" stroke-linecap="round" stroke-linejoin="round"/>
<path d="M168 136C169.657 136 171 134.657 171 133C171 131.343 169.657 130 168 130C166.343 130 165 131.343 165 133C165 134.657 166.343 136 168 136Z" stroke="#FDFFBA" stroke-width="2" stroke-linecap="round" stroke-linejoin="round"/>
<path d="M69 81C71.2091 81 73 79.2091 73 77C73 74.7909 71.2091 73 69 73C66.7909 73 65 74.7909 65 77C65 79.2091 66.7909 81 69 81Z" stroke="#BEDCF8" stroke-width="2" stroke-linecap="round" stroke-linejoin="round"/>
<path d="M100 158C101.105 158 102 157.105 102 156C102 154.895 101.105 154 100 154C98.8954 154 98 154.895 98 156C98 157.105 98.8954 158 100 158Z" stroke="#BEDCF8" stroke-width="2" stroke-linecap="round" stroke-linejoin="round"/>
<path d="M399 52C400.105 52 401 51.1046 401 50C401 48.8954 400.105 48 399 48C397.895 48 397 48.8954 397 50C397 51.1046 397.895 52 399 52Z" stroke="#BEDCF8" stroke-width="2" stroke-linecap="round" stroke-linejoin="round"/>
<path d="M226 117C227.105 117 228 116.105 228 115C228 113.895 227.105 113 226 113C224.895 113 224 113.895 224 115C224 116.105 224.895 117 226 117Z" stroke="#BEDCF8" stroke-width="2" stroke-linecap="round" stroke-linejoin="round"/>
<g clip-path="url(#clip4)">
<path d="M333.243 131.121V135.364" stroke="#C0FFC2" stroke-width="2" stroke-linecap="round" stroke-linejoin="round"/>
<path d="M331.121 133.243H335.364" stroke="#C0FFC2" stroke-width="2" stroke-linecap="round" stroke-linejoin="round"/>
</g>
<path d="M188 53C189.105 53 190 52.1046 190 51C190 49.8954 189.105 49 188 49C186.895 49 186 49.8954 186 51C186 52.1046 186.895 53 188 53Z" stroke="#F69D9D" stroke-width="2" stroke-linecap="round" stroke-linejoin="round"/>
<path d="M17 57C18.1046 57 19 56.1046 19 55C19 53.8954 18.1046 53 17 53C15.8954 53 15 53.8954 15 55C15 56.1046 15.8954 57 17 57Z" stroke="#BEDCF8" stroke-width="2" stroke-linecap="round" stroke-linejoin="round"/>
<path d="M129.84 33.6101C129.329 33.0991 128.723 32.6938 128.055 32.4172C127.388 32.1406 126.673 31.9983 125.95 31.9983C125.228 31.9983 124.512 32.1406 123.845 32.4172C123.177 32.6938 122.571 33.0991 122.06 33.6101L121 34.6701L119.94 33.6101C118.908 32.5784 117.509 31.9988 116.05 31.9988C114.591 31.9988 113.192 32.5784 112.16 33.6101C111.128 34.6418 110.549 36.0411 110.549 37.5001C110.549 38.9591 111.128 40.3584 112.16 41.3901L113.22 42.4501L121 50.2301L128.78 42.4501L129.84 41.3901C130.351 40.8794 130.756 40.2729 131.033 39.6055C131.31 38.938 131.452 38.2226 131.452 37.5001C131.452 36.7776 131.31 36.0622 131.033 35.3948C130.756 34.7273 130.351 34.1209 129.84 33.6101V33.6101Z" stroke="#EFCA8C" stroke-width="2" stroke-linecap="round" stroke-linejoin="round"/>
<defs>
<clipPath id="clip0">
<rect width="24" height="24" fill="white" transform="translate(401 80)"/>
</clipPath>
<clipPath id="clip1">
<rect width="6" height="6" fill="white" transform="translate(246 127.243) rotate(-45)"/>
</clipPath>
<clipPath id="clip2">
<rect width="12" height="12" fill="white" transform="translate(269 54.5146) rotate(45)"/>
</clipPath>
<clipPath id="clip3">
<rect width="12" height="12" fill="white" transform="translate(382 127.515) rotate(45)"/>
</clipPath>
<clipPath id="clip4">
<rect width="6" height="6" fill="white" transform="translate(329 133.243) rotate(-45)"/>
</clipPath>
</defs>
</svg>
